<!-- Generated by IcoMoon.io -->
<svg version="1.1" xmlns="http://www.w3.org/2000/svg" width="32" height="32" viewBox="0 0 32 32">
<title>cloud-upload</title>
<defs>
    <linearGradient id="grad2" x1="0%" y1="0%" x2="0%" y2="100%">
      <stop offset="0%" style="stop-color:#cff4f9;stop-opacity:1" />
      <stop offset="100%" style="stop-color:#407a80;stop-opacity:1" />
    </linearGradient>
<style type="text/css"><![CDATA[
        path { fill: url(#grad2); }
      ]]></style>
  </defs>

<path d="M27.883 12.078c0.076-0.347 0.117-0.708 0.117-1.078 0-2.761-2.239-5-5-5-0.444 0-0.875 0.058-1.285 0.167-0.775-2.417-3.040-4.167-5.715-4.167-2.73 0-5.033 1.823-5.76 4.318-0.711-0.207-1.462-0.318-2.24-0.318-4.418 0-8 3.582-8 8s3.582 8 8 8h4v6h8v-6h7c2.761 0 5-2.239 5-5 0-2.46-1.777-4.505-4.117-4.922zM18 20v6h-4v-6h-5l7-7 7 7h-5z"></path>
</svg>
